<svg type="image/svg+xml" id="icon" xmlns="http://www.w3.org/2000/svg" viewBox="0 0 12 13"><defs><style>.cls-1{fill:#333;}</style></defs><title>server2</title><path class="cls-1" d="M13,1.5H3a1,1,0,0,0-1,1v11a1,1,0,0,0,1,1H13a1,1,0,0,0,1-1V2.5A1,1,0,0,0,13,1.5Zm0,12H3v-3H13Zm0-4H3V6.44H13Zm0-4.06H3V2.5H13Z" transform="translate(-2 -1.5)"/><circle class="cls-1" cx="9.5" cy="10.5" r="0.5"/><circle class="cls-1" cx="9.5" cy="6.5" r="0.5"/><circle class="cls-1" cx="9.5" cy="2.5" r="0.5"/><path class="cls-1" d="M4.5,12.5h5a.5.5,0,0,0,0-1h-5a.5.5,0,0,0,0,1Z" transform="translate(-2 -1.5)"/><path class="cls-1" d="M4.5,8.5h5a.5.5,0,0,0,0-1h-5a.5.5,0,0,0,0,1Z" transform="translate(-2 -1.5)"/><path class="cls-1" d="M4.5,4.5h5a.5.5,0,0,0,0-1h-5a.5.5,0,0,0,0,1Z" transform="translate(-2 -1.5)"/></svg>
